<?xml version="1.0" encoding="UTF-8"?>
<svg width="151px" height="66px" viewBox="0 0 151 66" version="1.1" xmlns="http://www.w3.org/2000/svg" xmlns:xlink="http://www.w3.org/1999/xlink">
    <!-- Generator: Sketch 44.1 (41455) - http://www.bohemiancoding.com/sketch -->
    <title>black-logo</title>
    <desc>Created with Sketch.</desc>
    <defs>
        <polygon id="path-1" points="150.839689 65.7814472 150.839689 0 0 0 0 65.7814472"></polygon>
    </defs>
    <g id="Page-1" stroke="none" stroke-width="1" fill="none" fill-rule="evenodd">
        <g id="homepage-copy-6" transform="translate(-50.000000, -20.000000)">
            <g id="Group-9">
                <g id="Group-3" transform="translate(50.000000, 20.000000)">
                    <g id="black-logo">
                        <g id="Group-11">
                            <g id="Page-1">
                                <mask id="mask-2" fill="white">
                                    <use xlink:href="#path-1"></use>
                                </mask>
                                <g id="Clip-2"></g>
                                <path d="M47.7454308,40.6679292 L48.1502566,40.6679292 L48.1502566,4.94102236 L47.7454308,4.94102236 L47.7454308,40.6679292 Z M150.405999,29.8258919 C150.246903,29.7996559 150.06635,29.786128 149.864747,29.786128 C149.559104,29.786128 149.268844,29.8390099 148.992348,29.944364 C148.715852,30.049718 148.461216,30.2026248 148.226822,30.4034944 C147.992833,30.603954 147.786777,30.8507366 147.607844,31.1438422 C147.429316,31.4365379 147.281554,31.7673578 147.164155,32.1358919 L147.125696,32.1358919 L147.125696,29.9738795 L145.887334,29.9738795 L145.887334,40.0829478 L147.125696,40.0829478 L147.125696,35.1370472 C147.125696,34.8537801 147.143509,34.5545255 147.179133,34.2384634 C147.214353,33.9224012 147.273053,33.6100286 147.354423,33.3005255 C147.435793,32.9914323 147.543072,32.6934075 147.676259,32.4072708 C147.809447,32.1211342 147.972187,31.8694323 148.163669,31.6521652 C148.355557,31.4348981 148.578211,31.2623143 148.831632,31.1340037 C149.085053,31.0052832 149.377337,30.9413329 149.709294,30.9413329 C150.170391,30.9413329 150.547283,31.0499665 150.839972,31.2668236 L150.839972,29.944364 C150.709618,29.891482 150.565096,29.852128 150.405999,29.8258919 L150.405999,29.8258919 Z M142.484369,35.0382522 C142.484369,33.6756186 142.185608,32.6343764 141.58768,31.9137056 C140.989753,31.1930348 140.134761,30.8326994 139.023514,30.8326994 C138.477404,30.8326994 137.983517,30.9282149 137.541852,31.119246 C137.099782,31.3098671 136.72127,31.587805 136.405911,31.9530596 C136.090551,32.3183143 135.848466,32.7659665 135.679653,33.2960161 C135.510436,33.8256559 135.425828,34.4262149 135.425828,35.0972832 C135.425828,35.7294075 135.510436,36.2984012 135.679653,36.8054944 C135.848466,37.3121776 136.087313,37.7467118 136.396195,38.108277 C136.705077,38.4706621 137.079946,38.7486 137.522015,38.9429106 C137.964085,39.1368112 138.458377,39.2339665 139.004082,39.2339665 C139.562742,39.2339665 140.057034,39.1400907 140.485745,38.9523391 C140.91486,38.7649975 141.278798,38.4919789 141.577964,38.1328733 C141.876726,37.7745876 142.102618,37.3351342 142.255238,36.8153329 C142.407857,36.2955317 142.484369,35.7031714 142.484369,35.0382522 L142.484369,35.0382522 Z M143.449879,32.7971217 C143.664031,33.448923 143.77131,34.1892708 143.77131,35.0185752 C143.77131,35.8085255 143.659173,36.5271466 143.435305,37.1756683 C143.210627,37.8237801 142.890409,38.3817056 142.474653,38.8490348 C142.058492,39.316364 141.551651,39.6783391 140.954128,39.9345503 C140.355795,40.1915814 139.679736,40.3198919 138.925951,40.3198919 C138.18512,40.3198919 137.520396,40.1948609 136.932184,39.9447988 C136.343972,39.6947366 135.841988,39.3409602 135.425828,38.8834696 C135.010072,38.4259789 134.691879,37.8778919 134.470844,37.2396186 C134.249809,36.6013453 134.139291,35.8937925 134.139291,35.1173702 C134.139291,34.2749478 134.256286,33.521072 134.490275,32.8565627 C134.724265,32.1916435 135.057031,31.6275689 135.48979,31.1635193 C135.921739,30.6994696 136.443155,30.3456932 137.054442,30.1021901 C137.665324,29.858687 138.347455,29.7369354 139.10124,29.7369354 C139.823045,29.7369354 140.47279,29.8570472 141.051286,30.0972708 C141.629782,30.3374944 142.120431,30.6847118 142.523637,31.138513 C142.926439,31.5927242 143.234916,32.1457304 143.449879,32.7971217 L143.449879,32.7971217 Z M130.766283,27.0124882 L129.51861,27.4269354 L129.51861,29.9738795 L127.763691,29.9738795 L127.763691,31.079482 L129.51861,31.079482 L129.51861,37.4667242 C129.51861,39.349159 130.324214,40.2903764 131.935825,40.2903764 C132.443072,40.2903764 132.910645,40.1817429 133.339761,39.9644758 L133.339761,38.8490348 C132.982299,39.0859789 132.608645,39.2044509 132.218798,39.2044509 C131.692525,39.2044509 131.318466,39.0531839 131.097431,38.7502398 C130.876396,38.4477056 130.766283,37.9537304 130.766283,37.2695441 L130.766283,31.079482 L133.339761,31.079482 L133.339761,29.9738795 L130.766283,29.9738795 L130.766283,27.0124882 Z M125.19912,34.8111466 L122.625238,35.1764012 C122.177096,35.2424012 121.793321,35.3243888 121.474723,35.4231839 C121.156125,35.5219789 120.893393,35.6552087 120.685313,35.8228733 C120.477232,35.9909478 120.324613,36.1983764 120.22705,36.445159 C120.129487,36.6919416 120.080908,36.9965255 120.080908,37.3580907 C120.080908,37.6282398 120.127868,37.8778919 120.222192,38.108277 C120.316112,38.3386621 120.452943,38.5378919 120.631471,38.7055565 C120.810404,38.8736311 121.0282,39.0035814 121.28486,39.0958174 C121.541519,39.1880534 121.832184,39.2339665 122.157259,39.2339665 C122.599329,39.2339665 123.005774,39.1486994 123.37619,38.9773453 C123.746605,38.8064012 124.066417,38.5690472 124.336436,38.266513 C124.60605,37.9635689 124.816964,37.6020037 124.969988,37.1805876 C125.122608,36.7591714 125.19912,36.3020907 125.19912,35.8085255 L125.19912,34.8111466 Z M125.593825,30.6847118 C126.162605,31.3164261 126.447198,32.2576435 126.447198,33.507954 L126.447198,40.0829478 L125.19912,40.0829478 L125.19912,38.2861901 L125.160257,38.2861901 C124.834777,38.9314323 124.391492,39.4311466 123.829594,39.7865627 C123.266887,40.1419789 122.631715,40.3198919 121.923675,40.3198919 C121.442337,40.3198919 121.008364,40.2506124 120.621755,40.1124634 C120.235147,39.9743143 119.906833,39.7787739 119.637219,39.5250224 C119.3672,39.2716807 119.159525,38.9675068 119.013383,38.6116807 C118.86724,38.2566745 118.793967,37.8651839 118.793967,37.4372087 C118.793967,36.5222273 119.073297,35.7933578 119.632361,35.2506 C120.191425,34.7074323 121.035892,34.3536559 122.166975,34.1892708 L125.19912,33.7448981 C125.19912,31.8038422 124.45505,30.8326994 122.966506,30.8326994 C121.803037,30.8326994 120.724176,31.263954 119.729924,32.1260534 L119.729924,30.7437429 C119.938005,30.5924758 120.173613,30.4559665 120.43675,30.3342149 C120.699887,30.2124634 120.977597,30.1071093 121.270286,30.0181528 C121.56257,29.9296062 121.862951,29.8603267 122.171833,29.8111342 C122.480715,29.7615317 122.781501,29.7369354 123.073785,29.7369354 C124.185436,29.7369354 125.025045,30.0529975 125.593825,30.6847118 L125.593825,30.6847118 Z M117.058074,29.786128 C116.752431,29.786128 116.462171,29.8390099 116.185675,29.944364 C115.909179,30.049718 115.654543,30.2026248 115.420149,30.4034944 C115.18616,30.603954 114.980104,30.8507366 114.801171,31.1438422 C114.622643,31.4365379 114.474476,31.7673578 114.357482,32.1358919 L114.319023,32.1358919 L114.319023,29.9738795 L113.080661,29.9738795 L113.080661,40.0829478 L114.319023,40.0829478 L114.319023,35.1370472 C114.319023,34.8537801 114.336836,34.5545255 114.37246,34.2384634 C114.40768,33.9224012 114.46638,33.6100286 114.54775,33.3005255 C114.62912,32.9914323 114.736399,32.6934075 114.869586,32.4072708 C115.002774,32.1211342 115.165514,31.8694323 115.356997,31.6521652 C115.548884,31.4348981 115.771538,31.2623143 116.024959,31.1340037 C116.27838,31.0052832 116.570664,30.9413329 116.902621,30.9413329 C117.363718,30.9413329 117.74061,31.0499665 118.033299,31.2668236 L118.033299,29.944364 C117.902946,29.891482 117.758423,29.852128 117.599326,29.8258919 C117.44023,29.7996559 117.259677,29.786128 117.058074,29.786128 L117.058074,29.786128 Z M109.745707,34.1499168 C109.726275,33.0967863 109.479332,32.2806 109.004876,31.7013578 C108.53042,31.1225255 107.870554,30.8326994 107.025683,30.8326994 C106.603045,30.8326994 106.211578,30.9085379 105.851283,31.059805 C105.490179,31.211072 105.173605,31.4299789 104.900348,31.7161155 C104.627495,32.0026621 104.401602,32.3515193 104.223074,32.762687 C104.044141,33.1742646 103.91905,33.6362646 103.847396,34.1499168 L109.745707,34.1499168 Z M110.769511,32.5896932 C110.945206,33.1955814 111.032648,33.8732087 111.032648,34.623395 L111.032648,35.2555193 L103.818249,35.2555193 C103.824726,35.8741155 103.906096,36.4304012 104.062358,36.9239665 C104.218216,37.4175317 104.442085,37.8352584 104.734774,38.1775565 C105.027463,38.5198547 105.3829,38.781395 105.802299,38.9621776 C106.221699,39.1433702 106.694535,39.2339665 107.220809,39.2339665 C108.34501,39.2339665 109.407677,38.8359168 110.408812,38.0394075 L110.408812,39.283159 C109.453423,39.9743143 108.296431,40.3198919 106.937836,40.3198919 C106.268659,40.3198919 105.661015,40.2014199 105.114905,39.9644758 C104.5692,39.7275317 104.104055,39.3835938 103.72109,38.9326621 C103.337316,38.4821404 103.041388,37.9274944 102.833712,37.2695441 C102.625632,36.6111839 102.521592,35.8609975 102.521592,35.0185752 C102.521592,34.2618298 102.635348,33.560836 102.86286,32.9155938 C103.090372,32.2707615 103.405731,31.712836 103.808533,31.2422273 C104.211739,30.7720286 104.689434,30.4034944 105.241616,30.1366248 C105.794203,29.8701652 106.398608,29.7369354 107.05483,29.7369354 C107.698503,29.7369354 108.266879,29.8504882 108.761171,30.0775938 C109.255058,30.3046994 109.669195,30.6289602 110.003986,31.0499665 C110.338777,31.4709727 110.594222,31.9846248 110.769511,32.5896932 L110.769511,32.5896932 Z M99.1582995,40.0829478 L100.405972,40.0829478 L100.405972,25.1169354 L99.1582995,25.1169354 L99.1582995,40.0829478 Z M95.823345,34.1499168 C95.8039134,33.0967863 95.5569697,32.2806 95.0825139,31.7013578 C94.6080582,31.1225255 93.9481922,30.8326994 93.1033209,30.8326994 C92.6810877,30.8326994 92.2896212,30.9085379 91.9289214,31.059805 C91.5678169,31.211072 91.2512432,31.4299789 90.9779858,31.7161155 C90.7055381,32.0026621 90.4792405,32.3515193 90.3011172,32.762687 C90.1217794,33.1742646 89.997093,33.6362646 89.9254389,34.1499168 L95.823345,34.1499168 Z M96.8471493,32.5896932 C97.0228437,33.1955814 97.1102861,33.8732087 97.1102861,34.623395 L97.1102861,35.2555193 L89.8962914,35.2555193 C89.9023638,35.8741155 89.9837338,36.4304012 90.1399965,36.9239665 C90.2958544,37.4175317 90.5201279,37.8352584 90.8124121,38.1775565 C91.1051011,38.5198547 91.4609429,38.781395 91.8799375,38.9621776 C92.299337,39.1433702 92.7721735,39.2339665 93.2984469,39.2339665 C94.422648,39.2339665 95.4853155,38.8359168 96.4864496,38.0394075 L96.4864496,39.283159 C95.5314657,39.9743143 94.3740689,40.3198919 93.0158786,40.3198919 C92.3462968,40.3198919 91.7386534,40.2014199 91.1929483,39.9644758 C90.6468383,39.7275317 90.1820984,39.3835938 89.7987284,38.9326621 C89.4149536,38.4821404 89.1194308,37.9274944 88.9113504,37.2695441 C88.70327,36.6111839 88.5992298,35.8609975 88.5992298,35.0185752 C88.5992298,34.2618298 88.7133906,33.560836 88.9404979,32.9155938 C89.1684147,32.2707615 89.4833692,31.712836 89.8861708,31.2422273 C90.2893772,30.7720286 90.7670716,30.4034944 91.3192539,30.1366248 C91.871841,29.8701652 92.4766507,29.7369354 93.1328732,29.7369354 C93.7765461,29.7369354 94.3449214,29.8504882 94.8392137,30.0775938 C95.3326962,30.3046994 95.7472378,30.6289602 96.0820287,31.0499665 C96.4164147,31.4709727 96.6718598,31.9846248 96.8471493,32.5896932 L96.8471493,32.5896932 Z M82.9057606,30.1714696 C82.2750421,30.4608857 81.7422914,30.8540161 81.3066989,31.3512708 C80.8715113,31.8481155 80.5395542,32.4302273 80.3124469,33.0984261 C80.08453,33.7666248 79.9711788,34.478687 79.9711788,35.2358422 C79.9711788,35.9663516 80.0784576,36.6423391 80.2930153,37.2642149 C80.5071681,37.8860907 80.8160501,38.4259789 81.2188517,38.8834696 C81.6220582,39.3409602 82.1094684,39.6980161 82.6810823,39.9546373 C83.2531011,40.2112584 83.8963692,40.3358795 84.6116962,40.3297304 C85.6642432,40.3166124 86.561337,40.0829478 87.3021681,39.6287366 L87.3021681,38.3849851 C86.5483826,38.9511093 85.7035113,39.2339665 84.767959,39.2339665 C84.1696265,39.2339665 83.6498303,39.1220534 83.2077606,38.8982273 C82.7656909,38.6744012 82.4001332,38.3735068 82.1110877,37.9951342 C81.8216373,37.6167615 81.6074845,37.1805876 81.4674147,36.6870224 C81.3281547,36.1934571 81.2581198,35.6765255 81.2581198,35.1370472 C81.2581198,34.551246 81.3411091,33.9966 81.5066828,33.4735193 C81.6722566,32.9500286 81.9127231,32.4929478 82.2280823,32.1014571 C82.5434416,31.7099665 82.9312646,31.4004634 83.3931708,31.1733578 C83.8546721,30.9462522 84.3809456,30.8326994 84.972396,30.8326994 C85.8172673,30.8326994 86.6038437,31.0762025 87.3317204,31.5632087 L87.3317204,30.2206621 C86.6491842,29.8984509 85.8953987,29.7369354 85.069959,29.7369354 C84.2574737,29.7369354 83.5360743,29.8816435 82.9057606,30.1714696 L82.9057606,30.1714696 Z M74.2679938,30.1714696 C73.6372753,30.4608857 73.1045247,30.8540161 72.6689322,31.3512708 C72.2337445,31.8481155 71.9017874,32.4302273 71.6746802,33.0984261 C71.4467633,33.7666248 71.3334121,34.478687 71.3334121,35.2358422 C71.3334121,35.9663516 71.4406909,36.6423391 71.6552485,37.2642149 C71.8694013,37.8860907 72.1782834,38.4259789 72.581085,38.8834696 C72.9842914,39.3409602 73.4717016,39.6980161 74.0433155,39.9546373 C74.6157391,40.2112584 75.2586024,40.3358795 75.9739295,40.3297304 C77.0268812,40.3166124 77.9235702,40.0829478 78.6644013,39.6287366 L78.6644013,38.3849851 C77.9106158,38.9511093 77.0657445,39.2339665 76.1301922,39.2339665 C75.5318598,39.2339665 75.0120635,39.1220534 74.5699938,38.8982273 C74.1279241,38.6744012 73.7623665,38.3735068 73.4733209,37.9951342 C73.1838705,37.6167615 72.9697177,37.1805876 72.829648,36.6870224 C72.6903879,36.1934571 72.6203531,35.6765255 72.6203531,35.1370472 C72.6203531,34.551246 72.7033424,33.9966 72.8689161,33.4735193 C73.0344898,32.9500286 73.2749563,32.4929478 73.5903155,32.1014571 C73.9056748,31.7099665 74.2939027,31.4004634 74.755404,31.1733578 C75.2169054,30.9462522 75.7431788,30.8326994 76.335034,30.8326994 C77.1795005,30.8326994 77.9660769,31.0762025 78.6939536,31.5632087 L78.6939536,30.2206621 C78.0114174,29.8984509 77.2576319,29.7369354 76.4321922,29.7369354 C75.619707,29.7369354 74.8983075,29.8816435 74.2679938,30.1714696 L74.2679938,30.1714696 Z M67.0046105,34.702513 L64.7230126,28.4042273 C64.6776721,28.2791963 64.6303075,28.1344882 64.5817284,27.9696932 C64.5331493,27.8053081 64.4926668,27.6179665 64.4602807,27.4068484 L64.4210126,27.4068484 C64.3817445,27.6179665 64.3380233,27.8053081 64.2894442,27.9696932 C64.2408651,28.1344882 64.1930957,28.2791963 64.1477552,28.4042273 L61.8859938,34.702513 L67.0046105,34.702513 Z M65.1326962,25.9261528 L70.4261976,40.0829478 L68.9833987,40.0829478 L67.4434416,35.897072 L61.4475676,35.897072 L59.9460689,40.0829478 L58.50327,40.0829478 L63.8263236,25.9261528 L65.1326962,25.9261528 Z M134.977281,18.5915441 C134.61982,18.8284882 134.246165,18.9469602 133.855913,18.9469602 C133.330045,18.9469602 132.955986,18.7956932 132.734951,18.4927491 C132.513916,18.1902149 132.403803,17.6962398 132.403803,17.0120534 L132.403803,10.8219913 L134.977281,10.8219913 L134.977281,9.71638882 L132.403803,9.71638882 L132.403803,6.75499752 L131.156131,7.16944472 L131.156131,9.71638882 L129.401211,9.71638882 L129.401211,10.8219913 L131.156131,10.8219913 L131.156131,17.2092335 C131.156131,19.0916683 131.961734,20.0328857 133.573345,20.0328857 C134.080592,20.0328857 134.548165,19.9242522 134.977281,19.7069851 L134.977281,18.5915441 Z M129.147385,9.71638882 L126.66135,9.71638882 L126.66135,8.09713416 C126.66135,6.55084845 127.245919,5.77729565 128.415865,5.77729565 C128.857935,5.77729565 129.218635,5.86953168 129.498369,6.05400373 L129.498369,4.85944472 C129.225112,4.73441366 128.854696,4.67169317 128.386718,4.67169317 C127.899308,4.67169317 127.468573,4.75081118 127.094919,4.90863727 C126.72086,5.06646335 126.411168,5.29233913 126.16382,5.58503478 C125.916876,5.87773043 125.730251,6.22986708 125.603541,6.64103478 C125.476425,7.05261242 125.413273,7.51174286 125.413273,8.01842609 L125.413273,9.71638882 L123.668069,9.71638882 L123.668069,10.8219913 L125.413273,10.8219913 L125.413273,19.8254571 L126.66135,19.8254571 L126.66135,10.8219913 L129.147385,10.8219913 L129.147385,9.71638882 Z M119.807246,18.6948484 C120.236361,18.5075068 120.600299,18.2344882 120.899466,17.8753826 C121.198227,17.5170969 121.423715,17.0776435 121.576739,16.5578422 C121.729358,16.038041 121.805871,15.4456807 121.805871,14.7807615 C121.805871,13.418128 121.507109,12.3768857 120.909182,11.6562149 C120.310849,10.9355441 119.456262,10.5752087 118.345015,10.5752087 C117.798905,10.5752087 117.305018,10.6707242 116.863353,10.8617553 C116.421283,11.0523764 116.042771,11.3303143 115.727412,11.6955689 C115.412053,12.0608236 115.169967,12.5084758 115.001155,13.0385255 C114.831938,13.5681652 114.747329,14.1687242 114.747329,14.8397925 C114.747329,15.4719168 114.831938,16.0409106 115.001155,16.5480037 C115.169967,17.054687 115.408814,17.4892211 115.717696,17.8507863 C116.026173,18.2131714 116.401447,18.4911093 116.843517,18.6854199 C117.285586,18.8793205 117.779879,18.9764758 118.325584,18.9764758 C118.884243,18.9764758 119.378535,18.8826 119.807246,18.6948484 L119.807246,18.6948484 Z M120.275629,19.6770596 C119.677297,19.9340907 119.001238,20.0624012 118.247452,20.0624012 C117.506621,20.0624012 116.841897,19.9373702 116.253686,19.6873081 C115.665474,19.437246 115.16349,19.0834696 114.747329,18.6259789 C114.331573,18.1684882 114.01338,17.6204012 113.792345,16.982128 C113.57131,16.3438547 113.460793,15.6363019 113.460793,14.8598795 C113.460793,14.0174571 113.577787,13.2635814 113.811777,12.599072 C114.045766,11.9341528 114.378533,11.3700783 114.811291,10.9060286 C115.24324,10.4419789 115.764656,10.0882025 116.375943,9.84469938 C116.986825,9.60119627 117.668956,9.47944472 118.422742,9.47944472 C119.144546,9.47944472 119.794291,9.59955652 120.372787,9.83978012 C120.951283,10.0800037 121.441527,10.4272211 121.845139,10.8810224 C122.24794,11.3352335 122.556417,11.8882398 122.77138,12.5396311 C122.985533,13.1914323 123.092812,13.9317801 123.092812,14.7610845 C123.092812,15.5510348 122.980675,16.2696559 122.756401,16.9181776 C122.532128,17.5662894 122.211911,18.1242149 121.796155,18.5915441 C121.379994,19.0588733 120.873152,19.4204385 120.275629,19.6770596 L120.275629,19.6770596 Z M111.403468,15.476836 C111.175551,15.2497304 110.886506,15.0390224 110.535522,14.8447118 C110.184943,14.6508112 109.768377,14.4548609 109.287849,14.2576807 C108.910551,14.0998547 108.590739,13.9514571 108.327602,13.8133081 C108.064466,13.675159 107.849908,13.5304509 107.683929,13.3787739 C107.518356,13.2275068 107.396503,13.0577925 107.318777,12.8704509 C107.24024,12.6826994 107.201782,12.4642025 107.201782,12.2137304 C107.201782,11.9706373 107.25198,11.7484509 107.352782,11.5475814 C107.453584,11.3471217 107.594463,11.174128 107.777039,11.0294199 C107.958806,10.8847118 108.178222,10.7727988 108.434881,10.6936807 C108.691136,10.6149727 108.975728,10.5752087 109.287849,10.5752087 C110.152152,10.5752087 110.95816,10.8187118 111.705873,11.305718 L111.705873,9.97300994 C111.0622,9.64382981 110.30801,9.47944472 109.443707,9.47944472 C108.975728,9.47944472 108.528801,9.54339503 108.103329,9.67211553 C107.677452,9.80042609 107.302179,9.98612795 106.977509,10.2296311 C106.652029,10.4731342 106.394155,10.7695193 106.202267,11.1183764 C106.01038,11.4672335 105.914841,11.8652832 105.914841,12.3129354 C105.914841,12.6679416 105.966659,12.9856435 106.070699,13.2652211 C106.174739,13.5452087 106.333836,13.8018298 106.547988,14.0354944 C106.762951,14.269159 107.035399,14.4843764 107.367356,14.6819665 C107.698503,14.8795565 108.095232,15.0734571 108.556329,15.2644882 C108.90124,15.4091963 109.210123,15.5473453 109.48257,15.6793453 C109.755828,15.8109354 109.989412,15.9540037 110.184943,16.1085503 C110.379664,16.2630969 110.529045,16.4344509 110.633085,16.6217925 C110.737125,16.8095441 110.789348,17.0313205 110.789348,17.2883516 C110.789348,18.4136311 110.048112,18.9764758 108.56645,18.9764758 C108.351892,18.9764758 108.125999,18.955159 107.888771,18.9121155 C107.651543,18.869482 107.415935,18.8055317 107.181946,18.7198547 C106.948361,18.6341776 106.720444,18.5321031 106.499409,18.4136311 C106.278375,18.295159 106.073938,18.1602894 105.885694,18.0090224 L105.885694,19.4204385 C106.574302,19.8484137 107.422412,20.0624012 108.430023,20.0624012 C108.94982,20.0624012 109.430753,19.9996807 109.872822,19.8746497 C110.314487,19.7496186 110.699476,19.5655565 111.028195,19.3220534 C111.356104,19.0785503 111.612763,18.7788857 111.798173,18.4234696 C111.983179,18.0680534 112.076289,17.6634447 112.076289,17.2092335 C112.076289,16.8406994 112.020828,16.5168484 111.91031,16.2368609 C111.799793,15.9572832 111.630576,15.7039416 111.403468,15.476836 L111.403468,15.476836 Z M102.818734,16.5578422 C102.971353,16.038041 103.047865,15.4456807 103.047865,14.7807615 C103.047865,13.418128 102.749104,12.3768857 102.151176,11.6562149 C101.553249,10.9355441 100.698257,10.5752087 99.5870099,10.5752087 C99.0409,10.5752087 98.5470126,10.6707242 98.1053477,10.8617553 C97.663278,11.0523764 97.284766,11.3303143 96.9694067,11.6955689 C96.6540475,12.0608236 96.4119617,12.5084758 96.2431493,13.0385255 C96.0739322,13.5681652 95.9893236,14.1687242 95.9893236,14.8397925 C95.9893236,15.4719168 96.0739322,16.0409106 96.2431493,16.5480037 C96.4119617,17.054687 96.6508088,17.4892211 96.9596909,17.8507863 C97.2685729,18.2131714 97.6434416,18.4911093 98.0855113,18.6854199 C98.527581,18.8793205 99.0218732,18.9764758 99.5675783,18.9764758 C100.126238,18.9764758 100.62053,18.8826 101.04924,18.6948484 C101.478356,18.5075068 101.842294,18.2344882 102.14146,17.8753826 C102.440222,17.5170969 102.666114,17.0776435 102.818734,16.5578422 L102.818734,16.5578422 Z M103.038149,18.5915441 C102.621988,19.0588733 102.115147,19.4204385 101.517624,19.6770596 C100.919291,19.9340907 100.243232,20.0624012 99.4894469,20.0624012 C98.7486158,20.0624012 98.083892,19.9373702 97.4956802,19.6873081 C96.9074684,19.437246 96.4054845,19.0834696 95.9893236,18.6259789 C95.5735676,18.1684882 95.2553745,17.6204012 95.0343397,16.982128 C94.8133048,16.3438547 94.7027874,15.6363019 94.7027874,14.8598795 C94.7027874,14.0174571 94.819782,13.2635814 95.0537713,12.599072 C95.2877606,11.9341528 95.6205273,11.3700783 96.0532861,10.9060286 C96.4852351,10.4419789 97.0066507,10.0882025 97.6179375,9.84469938 C98.2288196,9.60119627 98.9109509,9.47944472 99.6647365,9.47944472 C100.386541,9.47944472 101.036286,9.59955652 101.614782,9.83978012 C102.193278,10.0800037 102.683522,10.4272211 103.087133,10.8810224 C103.489935,11.3352335 103.798412,11.8882398 104.013375,12.5396311 C104.227527,13.1914323 104.334806,13.9317801 104.334806,14.7610845 C104.334806,15.5510348 104.222669,16.2696559 103.998801,16.9181776 C103.774123,17.5662894 103.453905,18.1242149 103.038149,18.5915441 L103.038149,18.5915441 Z M90.5395595,14.8795565 C90.5395595,14.5962894 90.5573718,14.2970348 90.5929965,13.9809727 C90.6286212,13.6649106 90.6873209,13.3525379 90.7686909,13.0430348 C90.8500609,12.7339416 90.9573397,12.4359168 91.0905273,12.1497801 C91.223715,11.8636435 91.3860501,11.6119416 91.5779375,11.3946745 C91.7698249,11.1774075 91.9920743,11.0048236 92.2454952,10.876513 C92.4989161,10.7477925 92.7916051,10.6838422 93.1231574,10.6838422 C93.5846587,10.6838422 93.9615515,10.7924758 94.2538357,11.0093329 L94.2538357,9.68687329 C94.1238866,9.6339913 93.9793638,9.59463727 93.8202673,9.56840124 C93.660766,9.54216522 93.4806185,9.52863727 93.2790153,9.52863727 C92.9733718,9.52863727 92.682707,9.58151925 92.4066158,9.68687329 C92.1301198,9.79222733 91.8750796,9.94513416 91.6410903,10.1455938 C91.4071011,10.3464634 91.2006399,10.593246 91.0221118,10.8863516 C90.8431788,11.1790472 90.6954174,11.5098671 90.5784228,11.8784012 L90.5395595,11.8784012 L90.5395595,9.71638882 L89.3016024,9.71638882 L89.3016024,19.8254571 L90.5395595,19.8254571 L90.5395595,14.8795565 Z M82.9057606,9.91397888 C82.2750421,10.203395 81.7422914,10.5965255 81.3066989,11.0937801 C80.8715113,11.5906248 80.5395542,12.1727366 80.3124469,12.8409354 C80.08453,13.5091342 79.9711788,14.2211963 79.9711788,14.9783516 C79.9711788,15.7088609 80.0784576,16.3848484 80.2930153,17.0067242 C80.5071681,17.6286 80.8160501,18.1684882 81.2188517,18.6259789 C81.6220582,19.0834696 82.1094684,19.4405255 82.6810823,19.6971466 C83.2531011,19.9537677 83.8963692,20.0783888 84.6116962,20.0722398 C85.6642432,20.0591217 86.561337,19.8254571 87.3021681,19.371246 L87.3021681,18.1274944 C86.5483826,18.6936186 85.7035113,18.9764758 84.767959,18.9764758 C84.1696265,18.9764758 83.6498303,18.8645627 83.2077606,18.6407366 C82.7656909,18.4169106 82.4001332,18.1160161 82.1110877,17.7376435 C81.8216373,17.3592708 81.6074845,16.9230969 81.4674147,16.4295317 C81.3281547,15.9359665 81.2581198,15.4190348 81.2581198,14.8795565 C81.2581198,14.2937553 81.3411091,13.7391093 81.5066828,13.2160286 C81.6722566,12.6925379 81.9127231,12.2354571 82.2280823,11.8439665 C82.5434416,11.4524758 82.9312646,11.1429727 83.3931708,10.9158671 C83.8546721,10.6887615 84.3809456,10.5752087 84.972396,10.5752087 C85.8172673,10.5752087 86.6038437,10.8187118 87.3317204,11.305718 L87.3317204,9.96317143 C86.6491842,9.64096025 85.8953987,9.47944472 85.069959,9.47944472 C84.2574737,9.47944472 83.5360743,9.6241528 82.9057606,9.91397888 L82.9057606,9.91397888 Z M76.597766,19.8254571 L77.8454389,19.8254571 L77.8454389,9.71638882 L76.597766,9.71638882 L76.597766,19.8254571 Z M77.2118866,7.15960621 C77.3418357,7.15960621 77.4604496,7.13664969 77.5677284,7.09032671 C77.6750072,7.04441366 77.7705461,6.98005342 77.8551547,6.89806584 C77.9393584,6.81566832 78.0049402,6.71851304 78.0502807,6.6066 C78.0956212,6.49468696 78.1186962,6.37621491 78.1186962,6.25118385 C78.1186962,6.11959379 78.0940019,5.99948199 78.0454228,5.89084845 C77.9968437,5.78221491 77.9316668,5.68833913 77.8507016,5.60963106 C77.7693316,5.53051304 77.6733879,5.46984224 77.5628705,5.42679876 C77.4519483,5.38416522 77.3353584,5.36284845 77.2118866,5.36284845 C76.9714201,5.36284845 76.7633397,5.44688571 76.5880501,5.61455031 C76.4123558,5.78221491 76.3245086,5.99456273 76.3245086,6.25118385 C76.3245086,6.51477391 76.4123558,6.73163106 76.5880501,6.90257516 C76.7633397,7.07392919 76.9714201,7.15960621 77.2118866,7.15960621 L77.2118866,7.15960621 Z M61.1941466,19.8254571 L59.9266373,19.8254571 L59.9266373,5.66866211 L61.4572834,5.66866211 L66.2050796,16.3110596 C66.3022378,16.5344758 66.3985863,16.7636311 66.4925059,16.9968857 C66.5864255,17.2305503 66.6726534,17.4793826 66.7511895,17.7425627 L66.8094845,17.7425627 C66.9005702,17.4793826 66.9831547,17.2387491 67.0580475,17.021482 C67.1325354,16.8046248 67.2256453,16.5709602 67.3357579,16.3204882 L72.1224174,5.66866211 L73.575337,5.66866211 L73.575337,19.8254571 L72.2981118,19.8254571 L72.2981118,10.051718 C72.2981118,9.55200373 72.3373799,8.7456559 72.4151064,7.63349441 L72.3758383,7.63349441 C72.2851574,7.92946957 72.2021681,8.18609068 72.1276802,8.40335776 C72.0523826,8.62062484 71.9831574,8.79812795 71.9175756,8.93627702 L67.0430689,19.8254571 L66.487648,19.8254571 L61.6034255,9.00555652 C61.4601172,8.67678634 61.3143799,8.21273665 61.1649992,7.61340745 L61.1257311,7.61340745 C61.1516399,7.91635155 61.1698571,8.26192919 61.1795729,8.65014037 C61.1888839,9.03835155 61.1941466,9.46960621 61.1941466,9.94349441 L61.1941466,19.8254571 Z" id="Fill-1" fill="#4A4A4A" mask="url(#mask-2)"></path>
                            </g>
                            <path d="M18.8299304,20.3112336 C16.6998332,20.3112336 14.972865,18.5897354 14.972865,16.4663851 C14.972865,14.3430348 16.6998332,12.6215367 18.8299304,12.6215367 C20.9600276,12.6215367 22.6869958,14.3430348 22.6869958,16.4663851 C22.6869958,18.5897354 20.9600276,20.3112336 18.8299304,20.3112336 L18.8299304,20.3112336 Z M30.9390785,27.5373577 C30.8656362,27.4384978 30.7107103,27.4660183 30.6761334,27.5838486 L29.8186801,30.5042234 C29.7607839,30.7011416 29.4683546,30.6511773 29.4793442,30.4465106 L29.9569877,25.5123329 L29.9998738,24.7468367 C30.0644709,23.9172151 30.0893984,23.082517 30.0449041,22.2515594 C29.4235923,10.6665154 21.358868,2.22281136 19.2478015,0.201794426 C18.9666297,-0.0672648087 18.5232951,-0.0672648087 18.2423913,0.201794426 C16.1315929,2.22281136 8.06633252,10.6665154 7.44502067,22.2515594 C7.40052638,23.082517 7.42572194,23.9172151 7.49005104,24.7468367 L7.53320514,25.5123329 L7.9205199,30.4857873 C7.93204553,30.6899197 7.64095637,30.7412199 7.58172,30.5453705 L6.73418416,27.7452307 C6.69960727,27.6314082 6.55218643,27.6020174 6.4763317,27.693396 L0,35.5182905 L0,40.5398389 L8.84230223,40.5398389 L9.13499962,43.8217204 L12.4790404,43.8217204 L13.6302632,54.2057503 C13.6978088,54.6626433 14.3177804,54.6407338 14.357182,54.1801001 L14.7763933,43.8217204 L16.6778541,43.8217204 L17.2345688,56.896877 C17.2964856,57.364992 17.9354879,57.3385403 17.9636319,56.8664174 L19.3247284,29.0467079 C19.3370581,28.841774 19.6195701,28.846049 19.626539,29.0512501 L20.9434092,65.6208622 C20.9597595,66.1090163 21.6269059,66.1338649 21.6746166,65.6483826 L22.7406033,43.8217204 L28.3551932,43.8217204 L28.6478906,40.5395717 L36.8511905,40.5395717 L36.8511905,35.5177561 L30.9390785,27.5373577 Z" id="Fill-30" fill="#4A4A4A"></path>
                        </g>
                    </g>
                </g>
            </g>
        </g>
    </g>
</svg>